<svg xmlns="http://www.w3.org/2000/svg" version="1.1" xmlns:xlink="http://www.w3.org/1999/xlink" xmlns:svgjs="http://svgjs.com/svgjs" width="512" height="512" x="0" y="0" viewBox="0 0 504.354 504.354" style="enable-background:new 0 0 512 512" xml:space="preserve" class="">
	<g>
		<g xmlns="http://www.w3.org/2000/svg">
			<path d="m316.247 262.288-13.136-6.027v-10l-40.519-49.44-13.984-7.064v-10l-121.562-148.325c-12.19-14.874-34.139-19.098-52.171-4.32-49.008 40.165-68.377 80.097-70.072 95.111 4.526 4.526 11.775 2.114 13.669.561l61.009-50c9.693-7.944 23.991-6.526 31.935 3.167l161.19 196.538-24.515 30.801c-2.233 1.92-3.518 4.718-3.518 7.662 0 7.34 7.536 12.133 14.263 9.198 29.967-13.074 47.567-9.733 62.127 5.961l135.71 146.279c9.177 11.197 24.143 5.646 24.143-9.35z" fill="#7044e9" data-original="#dc8995" style="" class="">
			</path>
			<path d="m481.086 463.368-.268-.327c-.545 2.231-1.779 4.314-3.693 5.882-4.69 3.844-11.607 3.157-15.451-1.532l-135.71-146.279c-16.666-17.964-38.609-20.194-57.23-13.139-2.341.887-3.472-1.857-1.968-3.15s49.48-42.535 49.48-42.535l-13.136-16.027-24.872 21.381-31.33-38.228c.037-8.683 2.965-17.796 8.803-24.589 4.631-5.388 6.88-8.004 6.88-8.004l-13.984-17.064-21.702 25.249-108.929-132.913c-10.885-13.281-30.476-15.224-43.758-4.339l-63.468 52.015c-1.971 1.615-4.015 2.358-5.948 2.454-.083.731-.137 1.424-.137 2.034 0 6.815 8.235 12.559 15.465 6.634l63.468-52.015c6.8-5.573 16.831-4.578 22.404 2.222l4.983 6.08-78.688 64.489c-3.204 2.625-3.673 7.351-1.047 10.555 2.625 3.205 7.352 3.671 10.555 1.047l78.688-64.489 10.674 13.024-78.687 64.486c-3.204 2.625-3.673 7.351-1.047 10.555 2.625 3.205 7.352 3.671 10.555 1.047l78.687-64.488 10.673 13.023-78.687 64.489c-3.204 2.625-3.673 7.351-1.047 10.555 2.626 3.205 7.351 3.671 10.555 1.047l78.687-64.488 10.673 13.023-78.687 64.488c-3.204 2.625-3.673 7.351-1.047 10.555 2.625 3.205 7.351 3.671 10.555 1.047l78.687-64.489 10.674 13.024-78.687 64.488c-3.204 2.625-3.673 7.351-1.047 10.555 2.625 3.205 7.352 3.671 10.555 1.047l78.687-64.488 10.673 13.023-78.687 64.488c-3.204 2.625-3.673 7.351-1.047 10.555 2.625 3.205 7.352 3.671 10.555 1.047l76.42-62.63c-2.299 19.837-13 106.251-26.129 117.35-12.267 10.371 1.295 29.349 14.94 20.872l57.508-35.751c15.263-9.488 35.647-10.145 50.512 5.878l140.497 151.438c5.573 6.8 15.603 7.795 22.403 2.222s7.795-15.603 2.222-22.404z" fill="#8f6dee" data-original="#cd5668" style="" class="">
			</path>
			<path d="m474.352 182.294c0-13.019-3.882-25.143-10.531-35.299-1.749-10.888.808-21.817 7.221-30.802 6.465-9.057 16.07-15.054 27.046-16.887 4.085-.682 6.845-4.549 6.162-8.633-.682-4.085-4.547-6.844-8.633-6.162-14.928 2.493-27.991 10.649-36.784 22.967-5.093 7.135-8.392 15.172-9.789 23.572-10.904-8.388-24.539-13.392-39.327-13.392-35.64 0-64.636 28.996-64.636 64.636 0 5.693.747 11.213 2.136 16.476l-53.402 44.269.014-.016c-17.037 14.127-35.847 15.852-55.611 8.089l-16.184 33.642s31.82 10.896 33.22 9.735l97.824-81.093c11.01 19.971 32.268 33.534 56.64 33.534 35.639 0 64.634-28.996 64.634-64.636zm-114.271 0c0-27.369 22.267-49.636 49.636-49.636s49.636 22.267 49.636 49.636-22.267 49.636-49.636 49.636-49.636-22.267-49.636-49.636z" fill="#8e979f" data-original="#bcd1e1" style="" class="">
			</path>
			<path d="m371.668 79.61c0-35.64-28.996-64.636-64.636-64.636s-64.635 28.996-64.635 64.636c0 24.374 13.566 45.634 33.54 56.643l-122.043 147.224c-2.644 3.189-149.43 192.011-149.43 192.011l-.113 9.005 118.837-92.158 126.292-112.545c-2.653-6.757-7.783-19.819-11.263-28.678-7.742-19.71-5.126-40.118 7.983-55.484l44.363-53.516c5.261 1.387 10.779 2.134 16.469 2.134 35.641 0 64.636-28.996 64.636-64.636zm-114.271 0c0-27.369 22.267-49.636 49.636-49.636s49.636 22.267 49.636 49.636-22.267 49.636-49.636 49.636-49.636-22.267-49.636-49.636z" fill="#c0c5c9" data-original="#dce7ef" style="" class="">
			</path>
			<circle cx="209.397" cy="281.216" fill="#8e979f" r="8" data-original="#bcd1e1" style="" class="">
			</circle>
			<path d="m4.352 484.493c4.973 5.182 13.162 7.068 20.153 1.272 36.472-30.233 230.748-191.276 230.748-191.276s-2.505-6.378-5.772-14.699c-54.224 46.613-189.456 156.844-245.129 204.703z" fill="#8e979f" data-original="#bcd1e1" style="" class="">
			</path>
			<path d="m4.836 484.977c-5.182-4.973-7.068-13.162-1.272-20.153 30.234-36.472 150.33-181.348 150.33-181.348l1.658 4.108c2.674 6.624 1.503 14.175-3.056 19.674-25.127 30.313-107.355 130.834-147.66 177.719z" fill="#d8dcde" data-original="#f5fcff" style="" class="">
			</path>
		</g>
	</g>
</svg>
